<svg width="150" height="150" viewBox="0 0 304 201" fill="none" xmlns="http://www.w3.org/2000/svg">
<g clip-path="url(#clip0_0_1)">
<path d="M29.585 181.416H17.5439V177.578H29.585V181.416ZM31.2842 172.803H16.0205V190H12.2119V170.913C12.2119 170.649 12.2607 170.4 12.3584 170.166C12.4561 169.932 12.5879 169.727 12.7539 169.551C12.9297 169.375 13.1348 169.238 13.3691 169.141C13.6035 169.043 13.8574 168.994 14.1309 168.994H31.2842V172.803ZM53.6523 190H36.2793C36.0059 190 35.752 189.951 35.5176 189.854C35.2832 189.756 35.0781 189.624 34.9023 189.458C34.7363 189.282 34.6045 189.077 34.5068 188.843C34.4092 188.608 34.3604 188.354 34.3604 188.081V168.994H38.1689V186.191H53.6523V190ZM75.918 188.081C75.918 188.354 75.8691 188.608 75.7715 188.843C75.6738 189.077 75.5371 189.282 75.3613 189.458C75.1855 189.624 74.9805 189.756 74.7461 189.854C74.5117 189.951 74.2627 190 73.999 190H65.415C64.6045 190 63.7842 189.912 62.9541 189.736C62.124 189.561 61.3184 189.292 60.5371 188.931C59.7656 188.56 59.0381 188.091 58.3545 187.524C57.6709 186.958 57.0703 186.289 56.5527 185.518C56.0449 184.736 55.6445 183.848 55.3516 182.852C55.0586 181.846 54.9121 180.728 54.9121 179.497V168.994H58.7207V179.497C58.7207 180.571 58.8672 181.479 59.1602 182.222C59.4629 182.964 59.8438 183.584 60.3027 184.082C60.7617 184.58 61.2646 184.971 61.8115 185.254C62.3584 185.537 62.876 185.747 63.3643 185.884C63.8623 186.021 64.2969 186.108 64.668 186.147C65.0488 186.177 65.2979 186.191 65.415 186.191H72.1094V168.994H75.918V188.081ZM97.7295 181.416H85.6885V177.578H97.7295V181.416ZM99.4287 172.803H84.165V190H80.3564V170.913C80.3564 170.649 80.4053 170.4 80.5029 170.166C80.6006 169.932 80.7324 169.727 80.8984 169.551C81.0742 169.375 81.2793 169.238 81.5137 169.141C81.748 169.043 82.002 168.994 82.2754 168.994H99.4287V172.803ZM119.878 181.416H107.837V177.578H119.878V181.416ZM121.577 172.803H106.313V190H102.505V170.913C102.505 170.649 102.554 170.4 102.651 170.166C102.749 169.932 102.881 169.727 103.047 169.551C103.223 169.375 103.428 169.238 103.662 169.141C103.896 169.043 104.15 168.994 104.424 168.994H121.577V172.803ZM144.663 176.025C144.663 176.895 144.551 177.671 144.326 178.354C144.111 179.038 143.823 179.644 143.462 180.171C143.101 180.688 142.676 181.133 142.188 181.504C141.709 181.875 141.211 182.183 140.693 182.427C140.176 182.661 139.648 182.832 139.111 182.939C138.584 183.047 138.086 183.101 137.617 183.101H136.079V190H132.241V183.101H130.718C130.249 183.101 129.746 183.047 129.209 182.939C128.682 182.832 128.154 182.661 127.627 182.427C127.109 182.183 126.611 181.875 126.133 181.504C125.654 181.133 125.229 180.688 124.858 180.171C124.497 179.644 124.204 179.038 123.979 178.354C123.765 177.661 123.657 176.885 123.657 176.025V168.994H127.466V176.025C127.466 176.523 127.544 176.973 127.7 177.373C127.856 177.764 128.076 178.101 128.359 178.384C128.643 178.667 128.984 178.887 129.385 179.043C129.795 179.189 130.249 179.263 130.747 179.263H137.617C137.979 179.204 138.35 179.131 138.73 179.043C139.111 178.945 139.458 178.784 139.771 178.56C140.083 178.335 140.342 178.022 140.547 177.622C140.752 177.222 140.854 176.689 140.854 176.025V168.994H144.663V176.025ZM174.912 168.994L171.396 188.682C171.318 189.072 171.143 189.409 170.869 189.692C170.596 189.976 170.264 190.156 169.873 190.234C169.473 190.303 169.092 190.259 168.73 190.103C168.379 189.946 168.101 189.702 167.896 189.37L160.923 177.915L153.936 189.37C153.77 189.653 153.54 189.873 153.247 190.029C152.964 190.186 152.656 190.264 152.324 190.264C151.865 190.264 151.46 190.117 151.108 189.824C150.757 189.531 150.542 189.15 150.464 188.682L146.919 168.994H150.786L153.306 182.866L159.312 173.286C159.478 173.003 159.702 172.783 159.985 172.627C160.278 172.471 160.591 172.393 160.923 172.393C161.255 172.393 161.562 172.471 161.846 172.627C162.129 172.783 162.363 173.003 162.549 173.286L168.525 182.866L171.045 168.994H174.912ZM200.049 181.504C200.049 182.783 199.829 183.96 199.39 185.034C198.95 186.108 198.34 187.036 197.559 187.817C196.777 188.599 195.85 189.209 194.775 189.648C193.711 190.078 192.549 190.293 191.289 190.293H186.133C184.873 190.293 183.706 190.078 182.632 189.648C181.558 189.209 180.63 188.599 179.849 187.817C179.067 187.036 178.452 186.108 178.003 185.034C177.563 183.96 177.344 182.783 177.344 181.504V177.49C177.344 176.221 177.563 175.049 178.003 173.975C178.452 172.891 179.067 171.963 179.849 171.191C180.63 170.41 181.558 169.8 182.632 169.36C183.706 168.921 184.873 168.701 186.133 168.701H191.289C192.549 168.701 193.711 168.921 194.775 169.36C195.85 169.8 196.777 170.41 197.559 171.191C198.34 171.963 198.95 172.891 199.39 173.975C199.829 175.049 200.049 176.221 200.049 177.49V181.504ZM196.24 177.49C196.24 176.738 196.118 176.06 195.874 175.454C195.64 174.839 195.303 174.316 194.863 173.887C194.434 173.447 193.911 173.11 193.296 172.876C192.69 172.632 192.021 172.51 191.289 172.51H186.133C185.391 172.51 184.712 172.632 184.097 172.876C183.491 173.11 182.969 173.447 182.529 173.887C182.09 174.316 181.748 174.839 181.504 175.454C181.27 176.06 181.152 176.738 181.152 177.49V181.504C181.152 182.256 181.27 182.939 181.504 183.555C181.748 184.16 182.09 184.683 182.529 185.122C182.969 185.552 183.491 185.889 184.097 186.133C184.712 186.367 185.391 186.484 186.133 186.484H191.26C192.002 186.484 192.676 186.367 193.281 186.133C193.896 185.889 194.424 185.552 194.863 185.122C195.303 184.683 195.64 184.16 195.874 183.555C196.118 182.939 196.24 182.256 196.24 181.504V177.49ZM224.805 176.055C224.805 176.924 224.697 177.7 224.482 178.384C224.268 179.067 223.975 179.673 223.604 180.2C223.242 180.718 222.822 181.162 222.344 181.533C221.865 181.904 221.362 182.212 220.835 182.456C220.317 182.69 219.79 182.861 219.253 182.969C218.726 183.076 218.228 183.13 217.759 183.13L225.713 190H219.824L211.885 183.13H209.146V179.321H217.759C218.237 179.282 218.672 179.185 219.062 179.028C219.463 178.862 219.805 178.643 220.088 178.369C220.381 178.096 220.605 177.769 220.762 177.388C220.918 176.997 220.996 176.553 220.996 176.055V173.652C220.996 173.438 220.967 173.276 220.908 173.169C220.859 173.052 220.791 172.969 220.703 172.92C220.625 172.861 220.537 172.827 220.439 172.817C220.352 172.808 220.269 172.803 220.19 172.803H207.622V190H203.813V170.913C203.813 170.649 203.862 170.4 203.96 170.166C204.058 169.932 204.189 169.727 204.355 169.551C204.531 169.375 204.736 169.238 204.971 169.141C205.205 169.043 205.459 168.994 205.732 168.994H220.19C221.04 168.994 221.758 169.15 222.344 169.463C222.93 169.766 223.403 170.151 223.765 170.62C224.136 171.079 224.399 171.577 224.556 172.114C224.722 172.651 224.805 173.154 224.805 173.623V176.055ZM247.92 190H230.547C230.273 190 230.02 189.951 229.785 189.854C229.551 189.756 229.346 189.624 229.17 189.458C229.004 189.282 228.872 189.077 228.774 188.843C228.677 188.608 228.628 188.354 228.628 188.081V168.994H232.437V186.191H247.92V190ZM271.68 181.211C271.68 182.49 271.455 183.667 271.006 184.741C270.566 185.815 269.956 186.743 269.175 187.524C268.394 188.296 267.466 188.901 266.392 189.341C265.317 189.78 264.15 190 262.891 190H252.607C252.334 190 252.08 189.951 251.846 189.854C251.611 189.756 251.406 189.624 251.23 189.458C251.064 189.282 250.933 189.077 250.835 188.843C250.737 188.608 250.688 188.354 250.688 188.081V170.913C250.688 170.649 250.737 170.4 250.835 170.166C250.933 169.932 251.064 169.727 251.23 169.551C251.406 169.375 251.611 169.238 251.846 169.141C252.08 169.043 252.334 168.994 252.607 168.994H262.891C264.15 168.994 265.317 169.214 266.392 169.653C267.466 170.093 268.394 170.703 269.175 171.484C269.956 172.256 270.566 173.184 271.006 174.268C271.455 175.342 271.68 176.514 271.68 177.783V181.211ZM267.871 177.783C267.871 177.041 267.749 176.362 267.505 175.747C267.271 175.132 266.934 174.609 266.494 174.18C266.055 173.74 265.527 173.403 264.912 173.169C264.307 172.925 263.633 172.803 262.891 172.803H254.497V186.191H262.891C263.633 186.191 264.307 186.074 264.912 185.84C265.527 185.596 266.055 185.259 266.494 184.829C266.934 184.39 267.271 183.867 267.505 183.262C267.749 182.646 267.871 181.963 267.871 181.211V177.783ZM297.461 181.504C297.461 182.783 297.241 183.96 296.802 185.034C296.362 186.108 295.752 187.036 294.971 187.817C294.189 188.599 293.262 189.209 292.188 189.648C291.123 190.078 289.961 190.293 288.701 190.293H283.545C282.285 190.293 281.118 190.078 280.044 189.648C278.97 189.209 278.042 188.599 277.261 187.817C276.479 187.036 275.864 186.108 275.415 185.034C274.976 183.96 274.756 182.783 274.756 181.504V177.49C274.756 176.221 274.976 175.049 275.415 173.975C275.864 172.891 276.479 171.963 277.261 171.191C278.042 170.41 278.97 169.8 280.044 169.36C281.118 168.921 282.285 168.701 283.545 168.701H288.701C289.961 168.701 291.123 168.921 292.188 169.36C293.262 169.8 294.189 170.41 294.971 171.191C295.752 171.963 296.362 172.891 296.802 173.975C297.241 175.049 297.461 176.221 297.461 177.49V181.504ZM293.652 177.49C293.652 176.738 293.53 176.06 293.286 175.454C293.052 174.839 292.715 174.316 292.275 173.887C291.846 173.447 291.323 173.11 290.708 172.876C290.103 172.632 289.434 172.51 288.701 172.51H283.545C282.803 172.51 282.124 172.632 281.509 172.876C280.903 173.11 280.381 173.447 279.941 173.887C279.502 174.316 279.16 174.839 278.916 175.454C278.682 176.06 278.564 176.738 278.564 177.49V181.504C278.564 182.256 278.682 182.939 278.916 183.555C279.16 184.16 279.502 184.683 279.941 185.122C280.381 185.552 280.903 185.889 281.509 186.133C282.124 186.367 282.803 186.484 283.545 186.484H288.672C289.414 186.484 290.088 186.367 290.693 186.133C291.309 185.889 291.836 185.552 292.275 185.122C292.715 184.683 293.052 184.16 293.286 183.555C293.53 182.939 293.652 182.256 293.652 181.504V177.49Z" fill="#755E6B"/>
<path d="M152 10L168.839 61.8237H223.329L179.245 93.8525L196.084 145.676L152 113.647L107.916 145.676L124.755 93.8525L80.6708 61.8237H135.161L152 10Z" fill="url(#paint0_linear_0_1)"/>
<path d="M227 85L175.176 101.839V156.329L143.147 112.245L91.3237 129.084L123.353 85L91.3237 40.9161L143.147 57.7547L175.176 13.6708V68.1614L227 85Z" fill="url(#paint1_linear_0_1)"/>
<path d="M77 85L128.824 68.1615V13.6708L160.853 57.7547L212.676 40.9161L180.647 85L212.676 129.084L160.853 112.245L128.824 156.329V101.839L77 85Z" fill="url(#paint2_linear_0_1)"/>
<ellipse cx="152" cy="84.5" rx="63" ry="58.5" fill="url(#paint3_linear_0_1)"/>
<circle cx="152" cy="85" r="45" fill="url(#paint4_linear_0_1)"/>
<circle cx="152" cy="85" r="25" fill="#4B3D48"/>
</g>
<defs>
<linearGradient id="paint0_linear_0_1" x1="152" y1="10" x2="152" y2="160" gradientUnits="userSpaceOnUse">
<stop stop-color="#FF9393"/>
<stop offset="1" stop-color="#995858"/>
</linearGradient>
<linearGradient id="paint1_linear_0_1" x1="152" y1="10" x2="152" y2="160" gradientUnits="userSpaceOnUse">
<stop stop-color="#FF9393"/>
<stop offset="1" stop-color="#995858"/>
</linearGradient>
<linearGradient id="paint2_linear_0_1" x1="152" y1="10" x2="152" y2="160" gradientUnits="userSpaceOnUse">
<stop stop-color="#FF9393"/>
<stop offset="1" stop-color="#995858"/>
</linearGradient>
<linearGradient id="paint3_linear_0_1" x1="152" y1="26" x2="152" y2="143" gradientUnits="userSpaceOnUse">
<stop stop-color="#FF9393"/>
<stop offset="1" stop-color="#995858"/>
</linearGradient>
<linearGradient id="paint4_linear_0_1" x1="152" y1="130" x2="152" y2="40" gradientUnits="userSpaceOnUse">
<stop stop-color="#785F48"/>
<stop offset="0.56837" stop-color="#FFE9FA"/>
</linearGradient>
<clipPath id="clip0_0_1">
<rect width="304" height="201" fill="white"/>
</clipPath>
</defs>
</svg>
